HIERARCHY
ROOT Hips
{
	OFFSET 45.649799 -9.317214 86.621803
	CHANNELS 6 Xposition Yposition Zposition Xrotation Yrotation Zrotation
	JOINT spine
	{
		OFFSET 0.000000 -0.393701 6.846367
		CHANNELS 3 Xrotation Yrotation Zrotation
		JOINT spine1
		{
			OFFSET 0.000000 -0.000002 9.496208
			CHANNELS 3 Xrotation Yrotation Zrotation
			JOINT spine2
			{
				OFFSET 0.000000 -0.000001 9.099091
				CHANNELS 3 Xrotation Yrotation Zrotation
				JOINT Neck
				{
					OFFSET 0.000000 -1.113784 23.361198
					CHANNELS 3 Xrotation Yrotation Zrotation
					JOINT Head
					{
						OFFSET 0.000000 -0.000001 7.058014
						CHANNELS 3 Xrotation Yrotation Zrotation
						End Site
						{
							OFFSET 0.000000 5.634187 17.084396
						}
					}
				}
				JOINT RightShoulder
				{
					OFFSET -3.831360 0.533489 9.826309
					CHANNELS 3 Xrotation Yrotation Zrotation
					JOINT RightArm
					{
						OFFSET 0.000000 -0.000002 12.888100
						CHANNELS 3 Xrotation Yrotation Zrotation
						JOINT RightArmRoll
						{
							OFFSET 0.000000 -0.000001 6.506165
							CHANNELS 3 Xrotation Yrotation Zrotation
							JOINT RightForeArm
							{
								OFFSET 0.000000 -0.000003 18.950104
								CHANNELS 3 Xrotation Yrotation Zrotation
								JOINT RightForeArmRoll
								{
									OFFSET 0.000000 -0.000002 7.300919
									CHANNELS 3 Xrotation Yrotation Zrotation
									JOINT RightHand
									{
										OFFSET 0.000000 -0.000002 14.651398
										CHANNELS 3 Xrotation Yrotation Zrotation
										End Site
										{
											OFFSET 0.000000 0.000000 0.100006
										}
									}
								}
							}
						}
					}
				}
				JOINT LeftShoulder
				{
					OFFSET 3.831360 0.533489 9.826309
					CHANNELS 3 Xrotation Yrotation Zrotation
					JOINT LeftArm
					{
						OFFSET 0.000000 -0.000002 12.888100
						CHANNELS 3 Xrotation Yrotation Zrotation
						JOINT LeftArmRoll
						{
							OFFSET 0.000000 -0.000001 6.506165
							CHANNELS 3 Xrotation Yrotation Zrotation
							JOINT LeftForeArm
							{
								OFFSET 0.000000 -0.000003 18.950104
								CHANNELS 3 Xrotation Yrotation Zrotation
								JOINT LeftForeArmRoll
								{
									OFFSET 0.000000 -0.000002 7.300934
									CHANNELS 3 Xrotation Yrotation Zrotation
									JOINT LeftHand
									{
										OFFSET 0.000000 -0.000002 14.651398
										CHANNELS 3 Xrotation Yrotation Zrotation
										End Site
										{
											OFFSET 0.000000 0.000000 0.100006
										}
									}
								}
							}
						}
					}
				}
			}
		}
	}
	JOINT RightUpLeg
	{
		OFFSET -6.068371 0.933477 -1.112778
		CHANNELS 3 Xrotation Yrotation Zrotation
		JOINT RightUpLegRoll
		{
			OFFSET 0.000000 -0.000003 17.179604
			CHANNELS 3 Xrotation Yrotation Zrotation
			JOINT RightLeg
			{
				OFFSET 0.000000 0.000004 -21.274300
				CHANNELS 3 Xrotation Yrotation Zrotation
				JOINT RightLegRoll
				{
					OFFSET 0.000000 -0.000004 21.343903
					CHANNELS 3 Xrotation Yrotation Zrotation
					JOINT RightFoot
					{
						OFFSET 0.000000 -0.000003 17.765198
						CHANNELS 3 Xrotation Yrotation Zrotation
						JOINT RightToeBase
						{
							OFFSET 0.000000 -0.000002 14.850807
							CHANNELS 3 Xrotation Yrotation Zrotation
							End Site
							{
								OFFSET 0.006294 0.829004 7.192123
							}
						}
					}
				}
			}
		}
	}
	JOINT LeftUpLeg
	{
		OFFSET 6.068371 0.933477 -1.112778
		CHANNELS 3 Xrotation Yrotation Zrotation
		JOINT LeftUpLegRoll
		{
			OFFSET 0.000000 -0.000003 17.179703
			CHANNELS 3 Xrotation Yrotation Zrotation
			JOINT LeftLeg
			{
				OFFSET 0.000000 -0.000003 21.274200
				CHANNELS 3 Xrotation Yrotation Zrotation
				JOINT LeftLegRoll
				{
					OFFSET 0.000000 -0.000004 21.541206
					CHANNELS 3 Xrotation Yrotation Zrotation
					JOINT LeftFoot
					{
						OFFSET 0.000000 -0.000003 17.567902
						CHANNELS 3 Xrotation Yrotation Zrotation
						JOINT LeftToeBase
						{
							OFFSET 0.000000 -0.000002 14.850800
							CHANNELS 3 Xrotation Yrotation Zrotation
							End Site
							{
								OFFSET -0.028210 0.829004 7.192123
							}
						}
					}
				}
			}
		}
	}
}
MOTION
Frames: 13
Frame Time: 0.041667
47.906898 -6.953947 86.633484 3.999128 2.431982 33.931123 -1.562875 -1.872184 1.190987 0.906626 -3.764561 2.350970 2.552589 -3.736142 2.395907 -3.158390 13.217499 11.151356 11.846105 -5.612344 9.491718 -4.661006 -43.179281 -3.825201 132.297376 -11.491599 87.493576 0.000007 -0.000006 -0.000005 56.167770 -10.252732 7.923828 0.000008 0.000009 -3.000019 -4.999602 -7.998823 -0.000076 -21.756919 66.679537 25.552110 84.585261 47.632752 -52.009821 -0.000000 -0.000011 0.000004 38.559058 33.747661 -17.929656 -0.000003 0.000002 3.000010 -5.000084 8.000666 0.000450 -18.600297 -176.749709 -0.042094 -179.999991 0.000004 -1.068006 156.335858 -5.984167 -1.436823 0.000000 0.000001 0.295652 74.366246 7.526142 -0.192027 25.456947 -7.355602 0.000004 -18.261938 -176.495367 1.077121 -0.000005 -0.000004 -1.578200 -23.224200 5.206569 0.915994 -0.000008 0.000003 -0.809194 78.426431 -8.789889 5.120370 25.456952 7.355626 -0.000006 
47.900398 -6.965967 86.632790 3.991703 2.432622 33.930102 -1.568259 -1.874918 1.191924 0.896630 -3.770160 2.352639 2.542594 -3.741715 2.397654 -3.106202 13.105781 11.135890 11.848536 -5.495022 9.484801 -4.783159 -43.294428 -3.994637 132.143834 -11.776926 87.555150 0.000007 -0.000007 -0.000007 56.335981 -10.040568 7.822660 0.000006 0.000008 -3.000020 -4.999604 -7.998821 -0.000076 -21.662891 66.616385 25.446527 84.618940 47.825876 -51.927862 -0.000000 -0.000007 0.000004 38.858749 33.515854 -17.940839 -0.000003 0.000002 3.000009 -5.000084 8.000665 0.000447 -18.597391 -176.749668 -0.047456 -179.999991 0.000006 -1.066993 156.316146 -5.975009 -1.438270 -0.000000 0.000000 0.295666 74.381436 7.520835 -0.178376 25.456950 -7.355607 0.000005 -18.250231 -176.494192 1.072556 -0.000003 -0.000004 -1.579038 -23.227462 5.210455 0.916333 -0.000007 0.000004 -0.809215 78.422511 -8.793404 5.131406 25.456957 7.355631 -0.000007 
47.924702 -6.968636 86.624298 3.984038 2.433123 33.929392 -1.573525 -1.877613 1.192909 0.886877 -3.775669 2.354405 2.532838 -3.747206 2.399481 -3.055006 12.994633 11.120671 11.850617 -5.377932 9.477481 -4.905879 -43.409407 -4.165105 131.993529 -12.064096 87.614825 0.000010 -0.000005 -0.000005 56.506189 -9.828133 7.719741 0.000007 0.000007 -3.000017 -4.999604 -7.998821 -0.000075 -21.570849 66.553684 25.343164 84.649943 48.017705 -51.839217 -0.000000 -0.000008 0.000004 39.161614 33.284137 -17.950712 -0.000003 0.000002 3.000009 -5.000075 8.000665 0.000450 -18.594188 -176.749600 -0.052947 -179.999991 0.000005 -1.065995 156.296489 -5.966785 -1.440129 0.000001 0.000000 0.295685 74.396654 7.515568 -0.164820 25.456947 -7.355604 0.000006 -18.238048 -176.492047 1.067706 -0.000003 -0.000004 -1.579919 -23.230833 5.214262 0.916670 -0.000007 0.000003 -0.809243 78.418631 -8.796788 5.142363 25.456950 7.355632 -0.000009 
47.962002 -6.936537 86.621689 3.976181 2.433515 33.928695 -1.578719 -1.880276 1.193923 0.877292 -3.781109 2.356228 2.523263 -3.752629 2.401356 -3.004530 12.883957 11.105630 11.852551 -5.261005 9.469875 -5.029137 -43.524134 -4.336496 131.845915 -12.351659 87.674480 0.000012 -0.000006 -0.000006 56.677907 -9.615895 7.615381 0.000005 0.000008 -3.000018 -4.999604 -7.998820 -0.000076 -21.480388 66.491393 25.241579 84.678698 48.208575 -51.745305 -0.000000 -0.000004 0.000004 39.466670 33.052870 -17.959199 -0.000008 0.000000 3.000011 -5.000081 8.000666 0.000449 -18.590785 -176.749532 -0.058501 -179.999991 0.000005 -1.065000 156.276791 -5.957630 -1.441569 0.000001 0.000001 0.295706 74.412001 7.510310 -0.151270 25.456952 -7.355604 0.000005 -18.225748 -176.490859 1.063169 -0.000004 -0.000005 -1.580832 -23.234193 5.218008 0.916979 -0.000008 0.000003 -0.809280 78.414663 -8.800228 5.153205 25.456955 7.355631 -0.000010 
47.963692 -6.937116 86.645599 3.968237 2.433859 33.928111 -1.583872 -1.882921 1.194951 0.867803 -3.786518 2.358084 2.513770 -3.758013 2.403282 -2.954482 12.773657 11.090790 11.854437 -5.144162 9.462104 -5.152903 -43.638608 -4.508707 131.700213 -12.639509 87.734504 0.000011 -0.000005 -0.000009 56.850844 -9.403961 7.509497 0.000006 0.000009 -3.000022 -4.999604 -7.998823 -0.000076 -21.391014 66.429293 25.141173 84.705909 48.398669 -51.648258 0.000000 -0.000006 0.000004 39.772574 32.822163 -17.965768 -0.000002 0.000001 3.000011 -5.000079 8.000665 0.000450 -18.587159 -176.750420 -0.063796 -179.999991 0.000005 -1.064004 156.257038 -5.949392 -1.443418 0.000001 0.000001 0.295730 74.427335 7.505055 -0.137617 25.456947 -7.355605 0.000006 -18.213248 -176.489629 1.058652 -0.000004 -0.000004 -1.581742 -23.237552 5.221712 0.917275 -0.000007 0.000004 -0.809321 78.410654 -8.803615 5.163946 25.456955 7.355628 -0.000008 
47.977901 -6.952137 86.640594 3.960267 2.434178 33.927629 -1.589019 -1.885565 1.195994 0.858337 -3.791926 2.359948 2.504313 -3.763395 2.405204 -2.904582 12.663336 11.076074 11.856272 -5.027342 9.454285 -5.277145 -43.752720 -4.681608 131.555126 -12.928798 87.793387 0.000009 -0.000006 -0.000005 57.024587 -9.192697 7.402349 0.000007 0.000009 -3.000021 -4.999603 -7.998823 -0.000074 -21.302252 66.367186 25.041451 84.732233 48.588528 -51.549903 0.000000 -0.000010 0.000004 40.078290 32.592314 -17.970306 -0.000005 -0.000001 3.000011 -5.000080 8.000666 0.000449 -18.583555 -176.750351 -0.069417 -179.999991 0.000004 -1.064006 156.237422 -5.940246 -1.444847 0.000001 0.000001 0.295751 74.442696 7.499848 -0.124156 25.456945 -7.355603 0.000007 -18.200745 -176.488441 1.054134 -0.000004 -0.000004 -1.582662 -23.240914 5.225409 0.917576 -0.000008 0.000003 -0.809360 78.406672 -8.807026 5.174687 25.456953 7.355633 -0.000007 
47.991997 -6.951955 86.617393 3.952343 2.434542 33.927045 -1.594184 -1.888220 1.197020 0.848822 -3.797345 2.361789 2.494798 -3.768796 2.407114 -2.854559 12.552797 11.061600 11.858252 -4.910471 9.446542 -5.401810 -43.866381 -4.855126 131.410654 -13.217441 87.854128 0.000011 -0.000006 -0.000006 57.198671 -8.982402 7.294072 0.000006 0.000007 -3.000020 -4.999606 -7.998820 -0.000075 -21.213666 66.304867 24.941819 84.758276 48.778534 -51.451907 -0.000000 -0.000010 0.000004 40.382363 32.363704 -17.972408 -0.000004 0.000001 3.000011 -5.000081 8.000667 0.000449 -18.579950 -176.750283 -0.075006 -179.999991 0.000005 -1.063004 156.217710 -5.931096 -1.446267 -0.000000 0.000001 0.295773 74.458037 7.494610 -0.110597 25.456945 -7.355603 0.000005 -18.188241 -176.487252 1.049621 -0.000003 -0.000004 -1.583580 -23.244276 5.229128 0.917872 -0.000007 0.000003 -0.809405 78.402676 -8.810439 5.185526 25.456953 7.355631 -0.000007 
47.993591 -6.958635 86.623993 3.944546 2.434964 33.926349 -1.599398 -1.890894 1.198020 0.839189 -3.802814 2.363591 2.485173 -3.774237 2.408977 -2.804115 12.441949 11.047411 11.860486 -4.793495 9.438974 -5.526879 -43.979581 -5.029130 131.265430 -13.506540 87.915374 0.000012 -0.000007 -0.000006 57.372886 -8.773328 7.184878 0.000007 0.000009 -3.000019 -4.999604 -7.998823 -0.000078 -21.124815 66.242282 24.841864 84.784695 48.968816 -51.356056 -0.000000 -0.000008 0.000004 40.683906 32.136320 -17.971910 -0.000008 -0.000001 3.000010 -5.000080 8.000667 0.000449 -18.576643 -176.750215 -0.080554 -179.999991 0.000005 -1.061994 156.197957 -5.922877 -1.448105 0.000000 0.000001 0.295793 74.473391 7.489370 -0.097040 25.456950 -7.355607 0.000005 -18.176042 -176.486050 1.045088 -0.000004 -0.000004 -1.584472 -23.247640 5.232888 0.918192 -0.000008 0.000004 -0.809440 78.398701 -8.813872 5.196266 25.456952 7.355633 -0.000010 
48.002296 -6.953854 86.608589 3.936942 2.435508 33.925539 -1.604707 -1.893598 1.198983 0.829362 -3.808352 2.365308 2.475347 -3.779750 2.410763 -2.752973 12.330590 11.033431 11.862963 -4.676345 9.431710 -5.652312 -44.092228 -5.203506 131.119101 -13.794587 87.979107 0.000012 -0.000007 -0.000006 57.546550 -8.565748 7.074828 0.000007 0.000008 -3.000019 -4.999604 -7.998823 -0.000077 -21.035205 66.179069 24.740975 84.812221 49.159948 -51.264449 -0.000000 -0.000009 0.000004 40.981545 31.910459 -17.968448 -0.000006 -0.000000 3.000010 -5.000081 8.000668 0.000450 -18.573540 -176.750160 -0.085998 -179.999991 0.000004 -1.061000 156.178259 -5.913731 -1.449528 0.000000 0.000001 0.295815 74.488629 7.484136 -0.083373 25.456950 -7.355600 0.000005 -18.163942 -176.484862 1.040546 -0.000002 -0.000004 -1.585338 -23.251006 5.236715 0.918529 -0.000008 0.000004 -0.809463 78.394835 -8.817284 5.207218 25.456952 7.355635 -0.000009 
48.033096 -6.950065 86.605896 3.929616 2.436203 33.924498 -1.610120 -1.896352 1.199903 0.819269 -3.813981 2.366930 2.465263 -3.785365 2.412453 -2.700863 12.218421 11.019715 11.865884 -4.558929 9.424886 -5.778075 -44.204230 -5.378117 130.970681 -14.082738 88.044410 0.000011 -0.000008 -0.000007 57.719511 -8.359926 6.964199 0.000006 0.000008 -3.000020 -4.999605 -7.998823 -0.000078 -20.944384 66.115091 24.638659 84.841652 49.352089 -51.178754 -0.000000 -0.000009 0.000004 41.274147 31.686327 -17.961808 -0.000003 0.000001 3.000010 -5.000079 8.000664 0.000449 -18.570837 -176.750105 -0.091316 -179.999991 0.000004 -1.060998 156.158588 -5.905505 -1.451321 0.000001 0.000001 0.295823 74.503751 7.478895 -0.069696 25.456952 -7.355606 0.000005 -18.152339 -176.483673 1.035989 -0.000004 -0.000004 -1.586168 -23.254378 5.240640 0.918902 -0.000008 0.000004 -0.809484 78.391044 -8.820773 5.218361 25.456957 7.355631 -0.000009 
48.050201 -6.956768 86.605690 3.922652 2.437103 33.923238 -1.615698 -1.899175 1.200762 0.808839 -3.819740 2.368426 2.454835 -3.791108 2.414023 -2.647498 12.105246 11.006281 11.869358 -4.441210 9.418590 -5.904118 -44.315568 -5.552888 130.819337 -14.370752 88.111674 0.000010 -0.000006 -0.000007 57.891324 -8.156117 6.853174 0.000004 0.000009 -3.000020 -4.999603 -7.998822 -0.000075 -20.851960 66.050197 24.534437 84.873754 49.545782 -51.101238 0.000000 -0.000010 0.000004 41.560714 31.464178 -17.951988 -0.000004 -0.000000 3.000010 -5.000087 8.000666 0.000450 -18.568533 -176.750064 -0.096470 -179.999991 0.000004 -1.060002 156.138889 -5.896363 -1.452732 0.000002 0.000001 0.295822 74.518853 7.473624 -0.055919 25.456952 -7.355604 0.000006 -18.141143 -176.482485 1.031411 -0.000003 -0.000004 -1.586949 -23.257653 5.244682 0.919301 -0.000008 0.000004 -0.809483 78.387288 -8.824329 5.229606 25.456953 7.355630 -0.000008 
48.063099 -6.951687 86.600304 3.916100 2.438250 33.921735 -1.621454 -1.902069 1.201546 0.798001 -3.825651 2.369763 2.443999 -3.797005 2.415427 -2.592605 11.990868 10.993183 11.873473 -4.323097 9.412942 -6.030395 -44.426156 -5.727677 130.664756 -14.657106 88.182919 0.000011 -0.000009 -0.000007 58.061423 -7.954604 6.741904 0.000005 0.000008 -3.000022 -4.999603 -7.998822 -0.000076 -20.757577 65.984231 24.427871 84.909428 49.741102 -51.033493 0.000000 -0.000011 0.000004 41.839966 31.244140 -17.938594 -0.000002 0.000001 3.000010 -5.000081 8.000665 0.000449 -18.566951 -176.749081 -0.101742 -179.999991 0.000004 -1.059005 156.119150 -5.888147 -1.454536 0.000001 0.000001 0.295815 74.533749 7.468379 -0.042126 25.456950 -7.355604 0.000006 -18.130544 -176.481324 1.026806 -0.000003 -0.000004 -1.587672 -23.261034 5.248864 0.919745 -0.000007 0.000004 -0.809467 78.383586 -8.827968 5.240945 25.456952 7.355629 -0.000008 
48.075298 -6.953374 86.598396 3.910049 2.439686 33.919799 -1.627429 -1.905042 1.202249 0.786680 -3.831741 2.370917 2.432679 -3.803069 2.416645 -2.535895 11.875188 10.980469 11.878232 -4.204532 9.408061 -6.156885 -44.535992 -5.902370 130.505831 -14.942825 88.257307 0.000010 -0.000007 -0.000007 58.229542 -7.755582 6.630614 0.000004 0.000008 -3.000022 -4.999603 -7.998821 -0.000075 -20.660750 65.916926 24.318426 84.949481 49.938604 -50.977786 0.000000 -0.000009 0.000004 42.110749 31.026367 -17.921464 -0.000003 0.000000 3.000009 -5.000079 8.000664 0.000449 -18.565962 -176.748111 -0.106785 -179.999991 0.000005 -1.058009 156.099479 -5.879925 -1.456328 0.000000 0.000000 0.295796 74.548516 7.463067 -0.028132 25.456950 -7.355607 0.000006 -18.120661 -176.479234 1.021847 -0.000003 -0.000004 -1.588318 -23.264422 5.253221 0.920255 -0.000008 0.000004 -0.809433 78.380068 -8.831660 5.252691 25.456957 7.355629 -0.000007 
